<svg xmlns="http://www.w3.org/2000/svg" viewBox="0 0 32 32" width="32" height="32">
  <!-- Outer square border -->
  <rect x="1" y="1" width="30" height="30" fill="none" stroke="orange" stroke-width="2"/>

  <!-- JS Text Path -->
  <path d="M10.625 21.25L11.75 20.5C12.083 21.083 12.5 21.5 13.5 21.5C14.5 21.5 15 21.167 15 20.125V14.25H16.875V20.125C16.875 22.5 15.333 23.625 13.5 23.625C11.875 23.625 11.167 22.792 10.25 21.917ZM18.25 20.958L19.375 20.25C19.917 21.083 20.667 21.5 21.75 21.5C22.833 21.5 23.5 21.042 23.5 20.333C23.5 19.667 23.042 19.333 21.875 18.875C20.583 18.375 19.833 17.875 19.833 16.708C19.833 15.458 20.833 14.625 22.083 14.625C23.042 14.625 23.542 15.083 23.833 15.583L22.75 16.333C22.5 15.833 22.083 15.5 21.417 15.5C20.75 15.5 20.333 15.958 20.333 16.5C20.333 17.208 20.75 17.5 21.958 18C23.25 18.5 23.833 19 23.833 20.167C23.833 21.5 22.708 22.625 21.25 22.625C19.917 22.625 19.042 21.917 18.25 20.958Z" fill="orange"/>
</svg>
